inDegrees=no
num_controls=7
num_derivatives=13
num_iterations=98
num_multipliers=7
num_parameters=0
num_slacks=7
num_states=26
objective=0.444935
objective_accelerations=0.058479
objective_balance=0.003493
objective_effort=0.023151
objective_height=0.354343
objective_ligament=0.005470
solver_duration=1434.761121
status=Solve_Succeeded
success=true
DataType=double
version=3
OpenSimVersion=4.5
endheader
time	/jointset/ground_pelvis/pelvis_tilt/value	/jointset/ground_pelvis/pelvis_tx/value	/jointset/ground_pelvis/pelvis_ty/value	/jointset/hip_l/hip_flexion_l/value	/jointset/hip_l/hip_adduction_l/value	/jointset/hip_l/hip_rotation_l/value	/jointset/back/lumbar_extension/value	/jointset/patellofemoral_l/patellar_flexion_l/value	/jointset/knee_l/knee_flexion_l/value	/jointset/knee_l/knee_adduction_l/value	/jointset/knee_l/knee_rotation_l/value	/jointset/ankle_l/ankle_angle_l/value	/jointset/subtalar_l/subtalar_angle_l/value	/jointset/ground_pelvis/pelvis_tilt/speed	/jointset/ground_pelvis/pelvis_tx/speed	/jointset/ground_pelvis/pelvis_ty/speed	/jointset/hip_l/hip_flexion_l/speed	/jointset/hip_l/hip_adduction_l/speed	/jointset/hip_l/hip_rotation_l/speed	/jointset/back/lumbar_extension/speed	/jointset/patellofemoral_l/patellar_flexion_l/speed	/jointset/knee_l/knee_flexion_l/speed	/jointset/knee_l/knee_adduction_l/speed	/jointset/knee_l/knee_rotation_l/speed	/jointset/ankle_l/ankle_angle_l/speed	/jointset/subtalar_l/subtalar_angle_l/speed	/forceset/tau_hip_flexion_l	/forceset/tau_hip_adduction_l	/forceset/tau_hip_rotation_l	/forceset/tau_knee_flexion_l	/forceset/tau_ankle_angle_l	/forceset/tau_subtalar_angle_l	/forceset/tau_lumbar_extension	lambda_cid13_p0	lambda_cid13_p1	lambda_cid13_p2	lambda_cid13_p3	lambda_cid13_p4	lambda_cid13_p5	lambda_cid14_p0	/jointset/ground_pelvis/pelvis_tilt/accel	/jointset/ground_pelvis/pelvis_tx/accel	/jointset/ground_pelvis/pelvis_ty/accel	/jointset/hip_l/hip_flexion_l/accel	/jointset/hip_l/hip_adduction_l/accel	/jointset/hip_l/hip_rotation_l/accel	/jointset/back/lumbar_extension/accel	/jointset/patellofemoral_l/patellar_flexion_l/accel	/jointset/knee_l/knee_flexion_l/accel	/jointset/knee_l/knee_adduction_l/accel	/jointset/knee_l/knee_rotation_l/accel	/jointset/ankle_l/ankle_angle_l/accel	/jointset/subtalar_l/subtalar_angle_l/accel	gamma_cid13_p0	gamma_cid13_p1	gamma_cid13_p2	gamma_cid13_p3	gamma_cid13_p4	gamma_cid13_p5	gamma_cid14_p0
1.5	-0.3643798668819979	-0.0229063066202916	0.7591512689098089	1.112506569842043	-0.4342079892352906	-0.2068239216516361	-0.2258370164404291	0.8204859799877383	0.8204859799877234	-0.1246911984744828	-0.1438221834063436	0.137054963013525	-0.01345364478075315	0.6681841055435012	0.2652890622766829	0.5453240221327202	-2.471127128389375	0.2088462409012969	-0.716970750718257	0.3147087264914557	-2.058058195084176	-2.058058195083833	-0.14566505744903	0.140615811134008	-0.4250837509511645	0.02034121465774882	-0.1723052768305604	0.03066281524758133	-0.009052322850729815	-0.2103863228904611	0.04787916719021969	0.03953861063575943	0.1671206706919998	-16.7650828996986	-17.01336766912397	5.548701953410512	-9.046192006616476	-520.1634956302331	-58.31021879948118	-24.15692649618551	0.6780791721258993	0.742485861994539	-0.5233013122848187	-1.35018045715043	0.6999713178981142	-0.2442937591242321	1.492213032061331	-1.354199304173928	-1.354199304173918	0.1508588819916259	0.1969980964754111	-0.4965668498157793	0.510743066338963	5.602115561211416e-07	2.453779550822381e-07	-3.580585534377485e-06	-2.118335680719524e-07	8.208876161256154e-07	-7.291998755042614e-08	5.066445030327896e-07
1.51	-0.3576641446511136	-0.02021655715388337	0.7645772443793376	1.087729392812136	-0.4320863262582997	-0.214001442795342	-0.2226166955189896	0.799839826336247	0.7998398263361881	-0.1261460314748779	-0.1424054520928439	0.1327793968663981	-0.01322695005638155	0.6748612975012047	0.2726253034343179	0.5397527935885381	-2.483964121424757	0.2154559058342869	-0.7183842584409748	0.3293161640573863	-2.070888720501142	-2.07088872050086	-0.1453412848070754	0.1427525666925412	-0.4299601198447353	0.02499071927506414	-0.1662598951945307	0.02970363728602691	-0.008718799873045975	-0.2074283492608234	0.0479311916541299	0.03898531535851103	0.1621913495789693	-16.52633705303606	-16.82548743961022	5.530870288265975	-8.890508283487407	-516.0575659877647	-58.59845792460659	-25.09522801400837	0.6477557659539556	0.7238244891815746	-0.5916033944398956	-1.198745796112852	0.6373189866888042	-0.06700576212048216	1.439115058021955	-1.205008707884506	-1.205008707893655	-0.03290979791636996	0.2246234430082443	-0.4727926200351305	0.4413723604313612	5.708871650930633e-07	2.891762068400248e-07	-3.579461095991794e-06	-2.027624441160125e-07	8.465655520510107e-07	1.742532086602064e-08	5.08048443932172e-07
1.52	-0.3508846071889832	-0.01745451902659205	0.7699439936096334	1.062834188437997	-0.4298993956508407	-0.2211885243129267	-0.2192514790340589	0.7790738615211029	0.779073861520996	-0.1275988359995074	-0.1409668313922555	0.1284571428881546	-0.01295389664563605	0.6809471517933663	0.2797467944533011	0.5334787742861442	-2.494732597235366	0.2218997669948486	-0.7188828254946886	0.3436878391898409	-2.082020427815172	-2.082020427814952	-0.1452593622936681	0.1449936885497151	-0.4344213171746026	0.02961295193252244	-0.1602145135584879	0.02874445932448767	-0.008385276895440446	-0.2044703756311783	0.04798321611804436	0.03843202008128523	0.1572620284659443	-16.28965948547891	-16.63829352309882	5.514348212290333	-8.78133110319399	-512.0121300471576	-58.95201305635074	-26.03262301872695	0.559811639017438	0.6995358342641949	-0.6638594639271903	-0.9364770121958594	0.6668105634124525	-0.06130562532344136	1.445060545366117	-1.014435683586783	-1.014435683586891	0.1024888562821438	0.2178713562035775	-0.4135325370750734	0.505288674367562	5.1727317254167e-07	6.609935095540022e-07	-2.89590347649416e-06	-7.704938568599227e-08	7.734041853344224e-07	1.184843650147752e-07	4.692703016721315e-07
1.53	-0.3440473053410522	-0.0146225021628244	0.7752445238169623	1.037842128623488	-0.4276484428476058	-0.2283805297209392	-0.2157438773657171	0.7582055914661451	0.758205591466128	-0.1290481288572771	-0.1395082256984461	0.1240925012827861	-0.01263409902070926	0.6864063305088437	0.2866043496690838	0.5265128096153893	-2.503300394995346	0.228266058930814	-0.7194019705441796	0.3577724528913229	-2.091323425166252	-2.091323425165933	-0.1445962123648882	0.1467230328847637	-0.4384353699926486	0.03434859819325199	-0.1542127215079429	0.0280952443908318	-0.008011570618762513	-0.2012869522000054	0.04768784175835379	0.03746595314527672	0.1522915487762268	-16.18050260235733	-16.23597479820803	5.448073106860957	-8.401535577250563	-507.9915344025363	-58.92167643268832	-26.96871554189654	0.5229307977739218	0.6710923194225905	-0.7300336357295822	-0.7600867728725443	0.617699148541866	-0.02946745074915542	1.381155544476576	-0.8417768959633617	-0.8417768959483576	0.04895237095012387	0.1496110727499615	-0.3845282197877473	0.4578088770554527	3.953514783717552e-07	1.381331053908929e-06	-1.487260602065095e-06	1.72595728122737e-07	5.952260595607276e-07	2.309267533791067e-07	3.87798696055205e-07
1.54	-0.3371586197439755	-0.01172346435606146	0.7804719806441676	1.012775759708384	-0.425334594997038	-0.2355741762806438	-0.212097230807974	0.7372535824106639	0.7372535824107261	-0.1304906453538214	-0.1380324975411498	0.1196898818361138	-0.0122669236781492	0.6912239016227651	0.2931509830523597	0.5188640982614269	-2.509594417354267	0.2344787764609074	-0.7192110558331571	0.3714968170703013	-2.098768227921123	-2.098768227920704	-0.1439040900451357	0.1484181812435916	-0.4420168854354303	0.03908849545917473	-0.1482109294573969	0.02744602945718733	-0.00763786434221239	-0.1981035287688261	0.04739246739866422	0.03649988620927894	0.1473210690865054	-16.07358203361424	-15.83677830254299	5.386309950061104	-8.052700024046457	-504.0198627653812	-58.92685514768072	-27.90381049652506	0.4314901187062495	0.637351467762855	-0.8004088005686939	-0.4817219319840131	0.6360956822380724	0.08070632677928445	1.373010640865391	-0.6427967643450286	-0.6427967643450609	0.1082833344766483	0.2110321609594637	-0.327025062022194	0.5061388754062009	3.620962540805136e-07	1.757530909027746e-06	-9.480113610272572e-07	2.842698384569008e-07	5.55283609268701e-07	3.25135834859504e-07	3.674124359943115e-07
1.55	-0.3302248573427407	-0.008760398387833032	0.7856197064917216	0.9876571272725583	-0.4229597743247532	-0.2427619851509653	-0.2083153545762456	0.7162361843651482	0.7162361843651122	-0.1319271708068915	-0.136539848720938	0.1152537306792622	-0.01185270759628599	0.6954122686991209	0.2994203518352508	0.5105795520093305	-2.513771295750285	0.2404520346092027	-0.7182794888240935	0.384819579033631	-2.104393132733995	-2.104393132733761	-0.143375281472998	0.1500752859661213	-0.4451124873418321	0.04376476477234913	-0.1418948882376568	0.02578377218522426	-0.007346546639892338	-0.1960255886659805	0.04837216889516569	0.03572464278977298	0.1421661144880811	-15.57607697407	-15.59371023575947	5.354994455291954	-8.092925454937594	-500.444825671749	-59.26207566666794	-28.83880347729921	0.3950741833564952	0.6154929106241707	-0.8575572422073287	-0.3315333197051874	0.5729340968714188	0.1104828411234592	1.303081437821852	-0.4746891087319336	-0.4746891087595529	0.02925329571884833	0.1372343305810011	-0.2856418951836686	0.4497961280605159	4.31000223345129e-07	1.737224296113677e-06	-1.410454784548823e-06	2.369773578312478e-07	6.746126981185878e-07	3.983369757997171e-07	4.174071175523217e-07
